<?xml version="1.0" encoding="UTF-8"?>
<svg version="1.1" xmlns="http://www.w3.org/2000/svg" width="500" height="500">
<path d="M0 0 C165 0 330 0 500 0 C500 165 500 330 500 500 C335 500 170 500 0 500 C0 335 0 170 0 0 Z " fill="#04153B" transform="translate(0,0)"/>
<path d="M0 0 C0.75732422 0.00644531 1.51464844 0.01289063 2.29492188 0.01953125 C3.47344727 0.04466797 3.47344727 0.04466797 4.67578125 0.0703125 C5.47306641 0.07933594 6.27035156 0.08835938 7.09179688 0.09765625 C9.05742025 0.12119665 11.022889 0.15706703 12.98828125 0.1953125 C13.03082481 2.19485996 13.02908908 4.19572886 12.98828125 6.1953125 C10.65652932 8.52706443 5.04946045 7.72202333 1.89453125 7.9140625 C-0.90222007 7.8739114 -0.90222007 7.8739114 -2.01171875 9.1953125 C-2.11465764 11.33080698 -2.14745287 13.46970069 -2.15356445 15.60766602 C-2.15703888 16.27771164 -2.16051331 16.94775726 -2.16409302 17.6381073 C-2.17146377 19.09880805 -2.17680209 20.55952011 -2.18038368 22.02023506 C-2.18753993 24.33714516 -2.20320315 26.65384231 -2.22172546 28.97068787 C-2.27421163 35.56026149 -2.3221057 42.14972416 -2.33764648 48.73950195 C-2.34776932 52.76741093 -2.37721025 56.79479261 -2.41896629 60.8224926 C-2.43122935 62.35372858 -2.43640617 63.88503926 -2.43416786 65.41632271 C-2.41557425 82.30086998 -2.41557425 82.30086998 -8.42329407 88.69850159 C-15.13958368 94.7364663 -22.32310449 94.79022454 -30.88671875 94.57421875 C-35.93213785 94.25831392 -39.4667853 92.86479766 -43.01171875 89.1953125 C-47.66436011 83.34968617 -48.04388474 79.25340773 -48.19921875 71.9453125 C-48.442813 65.9223538 -49.55866928 62.06409228 -53.734375 57.61328125 C-55.01171875 56.1953125 -55.01171875 56.1953125 -55.01171875 54.1953125 C-50.04549526 54.17066152 -45.07930709 54.15247601 -40.11303711 54.14038086 C-38.42227559 54.1353406 -36.73151846 54.12850845 -35.04077148 54.11987305 C-32.61571168 54.10779393 -30.19070931 54.10208127 -27.765625 54.09765625 C-26.62499352 54.08991432 -26.62499352 54.08991432 -25.46131897 54.08201599 C-23.64439305 54.08182012 -21.82758748 54.13333973 -20.01171875 54.1953125 C-19.01171875 55.1953125 -19.01171875 55.1953125 -18.94921875 57.7578125 C-18.96984375 58.5621875 -18.99046875 59.3665625 -19.01171875 60.1953125 C-21.32171875 60.8553125 -23.63171875 61.5153125 -26.01171875 62.1953125 C-26.11990535 64.77977023 -26.19909112 67.35968602 -26.26171875 69.9453125 C-26.31199219 71.03972656 -26.31199219 71.03972656 -26.36328125 72.15625 C-26.42820386 75.7269933 -26.3236399 77.76850819 -24.1875 80.69140625 C-21.29495576 82.69074114 -19.46096977 82.5622541 -16.01171875 82.1953125 C-15.02171875 81.8653125 -14.03171875 81.5353125 -13.01171875 81.1953125 C-11.6079317 77.79421819 -11.8804024 74.13017837 -11.86987305 70.50244141 C-11.86639862 69.83849869 -11.86292419 69.17455597 -11.85934448 68.49049377 C-11.85200969 67.05275936 -11.84665221 65.61501379 -11.84305382 64.17726517 C-11.83586365 61.89846971 -11.82017866 59.61988651 -11.80171204 57.34115601 C-11.74935922 50.86353444 -11.7012724 44.38603179 -11.68579102 37.90820312 C-11.67569132 33.94167815 -11.64632063 29.97569208 -11.60447121 26.00938034 C-11.59218792 24.5016119 -11.58703507 22.99376729 -11.58926964 21.48595047 C-11.59163147 19.37237564 -11.56939459 17.26033899 -11.54174805 15.14697266 C-11.53588181 13.94658356 -11.53001556 12.74619446 -11.52397156 11.50942993 C-10.9042887 7.50027323 -9.53137111 5.34201814 -7.01171875 2.1953125 C-3.96490814 0.16410543 -3.41053551 -0.05128625 0 0 Z " fill="#CA0001" transform="translate(110.01171875,190.8046875)"/>
<path d="M0 0 C4.34633151 2.9682264 7.18141569 5.57093385 8.5625 10.75 C9.22686815 16.83421358 8.62308368 22.37263983 5.5625 27.75 C1.08311335 32.22938665 -3.13050708 33.847495 -9.375 34.0625 C-14.47865385 33.93377283 -18.14375162 33.03128235 -21.875 29.3203125 C-26.75060049 23.75215512 -26.77818506 19.05726734 -26.72265625 11.92578125 C-26.24893344 6.64993676 -24.32690031 4.46226903 -20.4375 0.9375 C-14.53204113 -2.5688662 -6.26168152 -2.2769751 0 0 Z " fill="#D2143B" transform="translate(291.4375,218.25)"/>
<path d="M0 0 C3.66864538 2.68437467 6.50666083 5.76332166 8.5625 9.875 C9.29478782 16.67481548 9.36179551 22.61124133 5.16796875 28.25 C0.94600884 32.52332195 -3.55495552 34.0858793 -9.5 34.375 C-14.54313334 34.15034429 -17.38814113 32.87152556 -21.4375 29.875 C-26.4666345 24.31648292 -26.84658883 20.60203825 -26.78125 13.21875 C-26.28735434 8.41449225 -24.76568538 5.3363128 -21.4375 1.875 C-15.52358287 -2.7407402 -6.86331111 -2.24617455 0 0 Z " fill="#D3143B" transform="translate(179.4375,218.125)"/>
<path d="M0 0 C4.29 0 8.58 0 13 0 C18.445 11.385 18.445 11.385 24 23 C24.33 15.41 24.66 7.82 25 0 C27.64 0 30.28 0 33 0 C33 11.22 33 22.44 33 34 C28.71 34 24.42 34 20 34 C18.72660518 31.48043257 17.45623358 28.95941351 16.1875 26.4375 C15.83107422 25.73302734 15.47464844 25.02855469 15.10742188 24.30273438 C14.75615234 23.60341797 14.40488281 22.90410156 14.04296875 22.18359375 C13.72352295 21.54993896 13.40407715 20.91628418 13.07495117 20.26342773 C11.62778037 17.21625071 10.32883356 14.10061164 9 11 C8.67 18.59 8.34 26.18 8 34 C5.36 34 2.72 34 0 34 C0 22.78 0 11.56 0 0 Z " fill="#EEEFF2" transform="translate(305,217)"/>
<path d="M0 0 C4.29 0 8.58 0 13 0 C17.38266947 8.53799585 21.41301759 17.08689218 25 26 C25.33 17.75 25.66 9.5 26 1 C28.31 1 30.62 1 33 1 C33 11.89 33 22.78 33 34 C28.71 34 24.42 34 20 34 C18.35203805 30.56350584 16.70654624 27.12586682 15.0625 23.6875 C14.59392578 22.71103516 14.12535156 21.73457031 13.64257812 20.72851562 C13.19462891 19.79072266 12.74667969 18.85292969 12.28515625 17.88671875 C11.87144775 17.02264404 11.45773926 16.15856934 11.03149414 15.26831055 C10 13 10 13 9 10 C8.67 17.92 8.34 25.84 8 34 C5.36 34 2.72 34 0 34 C0 22.78 0 11.56 0 0 Z " fill="#D1143B" transform="translate(193,217)"/>
<path d="M0 0 C8.91 0 17.82 0 27 0 C27 2.31 27 4.62 27 7 C20.73 7 14.46 7 8 7 C8 9.31 8 11.62 8 14 C13.61 14 19.22 14 25 14 C25 15.98 25 17.96 25 20 C19.39 20 13.78 20 8 20 C8 22.64 8 25.28 8 28 C14.27 28 20.54 28 27 28 C27 29.98 27 31.96 27 34 C18.09 34 9.18 34 0 34 C0 22.78 0 11.56 0 0 Z " fill="#EFF0F2" transform="translate(402,217)"/>
<path d="M0 0 C3.27990047 2.03238165 5.33268965 4.78708996 6.86328125 8.2734375 C7.05078125 11.0859375 7.05078125 11.0859375 6.86328125 13.2734375 C4.22328125 13.2734375 1.58328125 13.2734375 -1.13671875 13.2734375 C-1.40484375 12.3040625 -1.67296875 11.3346875 -1.94921875 10.3359375 C-2.34109375 9.3253125 -2.73296875 8.3146875 -3.13671875 7.2734375 C-5.81315832 6.38129098 -7.39056253 6.13803539 -10.13671875 6.1484375 C-10.81734375 6.14585937 -11.49796875 6.14328125 -12.19921875 6.140625 C-14.35546656 6.20712624 -14.35546656 6.20712624 -17.13671875 7.2734375 C-18.60688067 12.97031493 -18.83346375 18.64724482 -17.32421875 24.3359375 C-14.03242392 27.2515272 -10.89595641 26.74077753 -6.6328125 26.64453125 C-3.96783974 26.50151645 -3.96783974 26.50151645 -2.13671875 24.2734375 C-1.42961197 22.62352168 -0.75727886 20.95781494 -0.13671875 19.2734375 C2.17328125 19.2734375 4.48328125 19.2734375 6.86328125 19.2734375 C6.49898442 26.43794191 6.49898442 26.43794191 3.67578125 30.1484375 C-2.12672756 34.53255527 -8.06523599 35.00019674 -15.13671875 34.2734375 C-20.81130853 32.34621833 -24.45722746 28.63242008 -27.13671875 23.2734375 C-27.85238327 16.05544958 -27.92203661 10.00440345 -23.81640625 3.859375 C-17.66550186 -1.9482231 -7.8271958 -2.66153276 0 0 Z " fill="#D1143B" transform="translate(141.13671875,217.7265625)"/>
<path d="M0 0 C4.21952359 1.48053459 6.78735439 3.0664078 9 7 C9 7.99 9 8.98 9 10 C3.69440832 10.35370611 3.69440832 10.35370611 1 10 C-0.37310707 8.70766393 -1.71034824 7.37562854 -3 6 C-6.08461971 5.49957854 -6.08461971 5.49957854 -9 6 C-9.66 6.66 -10.32 7.32 -11 8 C-10.83333333 10.08333333 -10.83333333 10.08333333 -10 12 C-7.61862907 13.19068546 -5.90307979 13.17180637 -3.25 13.3125 C1.66365596 13.75337796 4.25006114 14.82697481 8 18 C9.60553944 21.21107887 9.47469056 24.51670728 9 28 C7.14908893 31.27468881 5.72802312 32.63598844 2.375 34.3125 C-3.65735741 35.54131355 -8.84670873 36.09622101 -14.4375 33.25 C-16.72569705 31.24085137 -18.51077016 29.64751971 -20 27 C-20 25.68 -20 24.36 -20 23 C-17.69 23 -15.38 23 -13 23 C-12.71125 23.639375 -12.4225 24.27875 -12.125 24.9375 C-11.17176549 27.15206079 -11.17176549 27.15206079 -9 28 C-7.29297265 28.06996014 -5.58331997 28.08440154 -3.875 28.0625 C-2.96492188 28.05347656 -2.05484375 28.04445312 -1.1171875 28.03515625 C-0.41851562 28.02355469 0.28015625 28.01195312 1 28 C0.67 26.02 0.34 24.04 0 22 C-1.03640625 21.82984375 -2.0728125 21.6596875 -3.140625 21.484375 C-4.5105647 21.24041314 -5.88034859 20.99557521 -7.25 20.75 C-8.27287109 20.58564453 -8.27287109 20.58564453 -9.31640625 20.41796875 C-13.71692317 19.60622291 -16.38795351 18.71081668 -19 15 C-19.79083445 11.59668486 -19.67774815 8.42291292 -19 5 C-13.52778458 -0.90423243 -7.62264943 -0.55799787 0 0 Z " fill="#D4143B" transform="translate(251,217)"/>
<path d="M0 0 C9.9 0 19.8 0 30 0 C30 2.31 30 4.62 30 7 C26.37 7 22.74 7 19 7 C19 15.91 19 24.82 19 34 C16.36 34 13.72 34 11 34 C11 25.09 11 16.18 11 7 C7.37 7 3.74 7 0 7 C0 4.69 0 2.38 0 0 Z " fill="#EBECEF" transform="translate(368,217)"/>
<path d="M0 0 C6.27 0 12.54 0 19 0 C19 1.65 19 3.3 19 5 C17.02 5 15.04 5 13 5 C13 12.26 13 19.52 13 27 C15.31 27 17.62 27 20 27 C20 28.98 20 30.96 20 33 C13.07 33 6.14 33 -1 33 C-1 31.02 -1 29.04 -1 27 C1.31 27 3.62 27 6 27 C6 19.74 6 12.48 6 5 C4.02 5 2.04 5 0 5 C0 3.35 0 1.7 0 0 Z " fill="#FBFBFC" transform="translate(344,218)"/>
<path d="M0 0 C2.8821401 0.83430371 3.66631491 1.46610385 5.25 4 C6.64233129 9.56932514 6.93286097 14.77890245 4.6875 20.125 C0.981841 22.71034349 -2.01152271 22.51683557 -6.44140625 22.46875 C-9.35917697 21.93419659 -10.25908808 21.35829602 -12 19 C-13.54697822 14.35906535 -13.60786995 9.84175481 -13 5 C-9.47159742 -0.62339161 -6.13402078 -0.68155786 0 0 Z " fill="#07143B" transform="translate(174,223)"/>
<path d="M0 0 C3.47984756 2.69865729 4.69511777 4.1440664 5.40234375 8.44921875 C5.58637012 13.37376437 5.27944823 17.08988864 2 21 C-0.45382134 22.22691067 -2.19984103 22.20175931 -4.9375 22.25 C-5.81277344 22.27578125 -6.68804687 22.3015625 -7.58984375 22.328125 C-10.45753546 21.93770992 -11.25539055 21.25322599 -13 19 C-15.10437595 14.7912481 -14.51756526 9.57284134 -14 5 C-10.70622229 -0.52504648 -6.02065512 -1.4915547 0 0 Z " fill="#08143B" transform="translate(287,223)"/>
<path d="M0 0 C1.67542976 0.28604898 3.34385343 0.61781233 5 1 C5.625 3.375 5.625 3.375 6 6 C5.34 6.66 4.68 7.32 4 8 C1.375 7.625 1.375 7.625 -1 7 C-1.04254356 5.00045254 -1.04080783 2.99958364 -1 1 C-0.67 0.67 -0.34 0.34 0 0 Z " fill="#C00103" transform="translate(85,208)"/>
<path d="M0 0 C2.5 0.125 2.5 0.125 3.5 1.125 C3.625 3.625 3.625 3.625 3.5 6.125 C2.5 7.125 2.5 7.125 0 7.25 C-2.5 7.125 -2.5 7.125 -3.5 6.125 C-3.625 3.625 -3.625 3.625 -3.5 1.125 C-2.5 0.125 -2.5 0.125 0 0 Z " fill="#C50002" transform="translate(87.5,219.875)"/>
<path d="M0 0 C1.67542976 0.28604898 3.34385343 0.61781233 5 1 C5.38218767 2.65614657 5.71395102 4.32457024 6 6 C5 7 5 7 2.5 7.125 C0 7 0 7 -1 6 C-1.125 3.5 -1.125 3.5 -1 1 C-0.67 0.67 -0.34 0.34 0 0 Z " fill="#C90001" transform="translate(85,231)"/>
</svg>
