<?xml version="1.0" encoding="UTF-8"?>
<svg version="1.1" xmlns="http://www.w3.org/2000/svg" width="500" height="500">
<path d="M0 0 C0.7321875 0.00515625 1.464375 0.0103125 2.21875 0.015625 C7.59527726 0.09527726 7.59527726 0.09527726 8.75 1.25 C8.9375 4.1875 8.9375 4.1875 8.75 7.25 C5.45798713 10.54201287 1.10792824 9.70967456 -3.37890625 9.90625 C-4.32636719 10.0196875 -5.27382812 10.133125 -6.25 10.25 C-7.70242056 13.15484112 -7.34286564 15.66218796 -7.3125 18.90625 C-7.30352766 20.31990445 -7.29474753 21.73356012 -7.28613281 23.1472168 C-7.27988892 23.89707855 -7.27364502 24.64694031 -7.26721191 25.41952515 C-7.17291188 38.18765011 -7.18891012 50.96166931 -7.45751953 63.72753906 C-7.48560295 65.18852263 -7.50687995 66.64965457 -7.52099609 68.11083984 C-7.69234039 84.63985295 -7.69234039 84.63985295 -14.28515625 91.30859375 C-14.95417969 91.76363281 -15.62320313 92.21867187 -16.3125 92.6875 C-16.98410156 93.16058594 -17.65570313 93.63367188 -18.34765625 94.12109375 C-24.2449716 97.62073263 -32.58367169 97.04746416 -39.25 96.25 C-44.86282407 94.43674182 -49.15342377 91.32838502 -52.25 86.25 C-54.08852166 81.66365174 -54.4391502 77.79369232 -54.5 72.875 C-54.80540154 66.65702474 -55.7136717 63.22264923 -60.0703125 58.765625 C-60.45960937 58.26546875 -60.84890625 57.7653125 -61.25 57.25 C-60.92 56.26 -60.59 55.27 -60.25 54.25 C-49.69 53.92 -39.13 53.59 -28.25 53.25 C-28.25 52.59 -28.25 51.93 -28.25 51.25 C-27.26 51.25 -26.27 51.25 -25.25 51.25 C-24.91666667 52.58333333 -24.58333333 53.91666667 -24.25 55.25 C-24.04375 55.930625 -23.8375 56.61125 -23.625 57.3125 C-23.25 59.25 -23.25 59.25 -24.25 62.25 C-27.715 62.745 -27.715 62.745 -31.25 63.25 C-31.304348 65.3122048 -31.34294961 67.37482816 -31.375 69.4375 C-31.39820312 70.58605469 -31.42140625 71.73460937 -31.4453125 72.91796875 C-31.25313312 76.19654899 -30.76407144 78.35420602 -29.25 81.25 C-26.45129973 82.64935013 -24.34501208 82.50265405 -21.25 82.25 C-19.45171081 81.20430236 -19.45171081 81.20430236 -18.25 79.25 C-17.80170542 76.20935777 -17.80170542 76.20935777 -17.88110352 72.68652344 C-17.87733704 72.02433304 -17.87357056 71.36214264 -17.86968994 70.67988586 C-17.86325759 69.24268763 -17.86358744 67.80544686 -17.86987495 66.36824799 C-17.87898746 64.08906198 -17.86875887 61.81069842 -17.85325623 59.53155518 C-17.81317079 53.05213725 -17.81194754 46.57278301 -17.81420898 40.09326172 C-17.81426025 36.12794834 -17.79500767 32.16307597 -17.76487541 28.19788361 C-17.75409184 25.96038294 -17.76615796 23.72373974 -17.77870178 21.48626709 C-17.74624056 8.88188626 -17.74624056 8.88188626 -13.25 3.25 C-9.19286544 -0.23970316 -5.12860871 -0.14758586 0 0 Z " fill="#C50205" transform="translate(115.25,189.75)"/>
<path d="M0 0 C0.66 1.32 1.32 2.64 2 4 C2.66 4.33 3.32 4.66 4 5 C4 3.68 4 2.36 4 1 C19.345 0.505 19.345 0.505 35 0 C35 2.64 35 5.28 35 8 C31.37 8 27.74 8 24 8 C24.33 16.91 24.66 25.82 25 35 C23 36 23 36 15 35 C15 26.09 15 17.18 15 8 C11.37 8 7.74 8 4 8 C4 7.34 4 6.68 4 6 C3.01 6.66 2.02 7.32 1 8 C-2.1875 8.125 -2.1875 8.125 -5 8 C-4.67 8.99 -4.34 9.98 -4 11 C-3.97827148 12.90112305 -3.97827148 12.90112305 -4.12109375 15.01171875 C-4.16943359 15.76904297 -4.21777344 16.52636719 -4.26757812 17.30664062 C-4.32365234 18.09232422 -4.37972656 18.87800781 -4.4375 19.6875 C-4.48970703 20.48478516 -4.54191406 21.28207031 -4.59570312 22.10351562 C-4.72519022 24.06936522 -4.86190041 26.03473665 -5 28 C-3.02 28 -1.04 28 1 28 C1 30.31 1 32.62 1 35 C-6.26 35 -13.52 35 -21 35 C-21 29 -21 29 -20 28 C-18.35 28 -16.7 28 -15 28 C-14.67 21.4 -14.34 14.8 -14 8 C-15.98 8 -17.96 8 -20 8 C-20 5.69 -20 3.38 -20 1 C-10.1 0.505 -10.1 0.505 0 0 Z " fill="#FBFDFD" transform="translate(363,216)"/>
<path d="M0 0 C4.62 0 9.24 0 14 0 C17.3 7.26 20.6 14.52 24 22 C24.33 14.74 24.66 7.48 25 0 C27.64 0 30.28 0 33 0 C34.11463007 7.15663277 34.14893802 14.20422871 34.125 21.4375 C34.13080078 23.2309082 34.13080078 23.2309082 34.13671875 25.06054688 C34.13542969 26.19427734 34.13414062 27.32800781 34.1328125 28.49609375 C34.13168457 29.52919678 34.13055664 30.5622998 34.12939453 31.62670898 C34 34 34 34 33 35 C31.04577134 35.15167148 29.08490271 35.22179996 27.125 35.25 C25.52011719 35.28867188 25.52011719 35.28867188 23.8828125 35.328125 C20.54864217 34.94862594 20.08719005 34.48533678 18 32 C16.92504883 30.14648437 16.92504883 30.14648437 15.95703125 28.09375 C15.60576172 27.34996094 15.25449219 26.60617188 14.89257812 25.83984375 C14.35793945 24.68162109 14.35793945 24.68162109 13.8125 23.5 C13.44447266 22.72785156 13.07644531 21.95570313 12.69726562 21.16015625 C10 15.38530554 10 15.38530554 10 12 C9.34 12 8.68 12 8 12 C8.33 12.66 8.66 13.32 9 14 C9.08372659 15.52148326 9.10730027 17.04655778 9.09765625 18.5703125 C9.09443359 19.46621094 9.09121094 20.36210937 9.08789062 21.28515625 C9.07951172 22.22230469 9.07113281 23.15945312 9.0625 24.125 C9.05798828 25.06988281 9.05347656 26.01476562 9.04882812 26.98828125 C9.03702357 29.32558387 9.02055759 31.66276061 9 34 C6.21136993 35.39431504 4.07921132 35.25660094 1 35 C-1.42248355 31.36627467 -1.17281207 28.87919158 -0.9765625 24.70703125 C-0.95153656 24.00100266 -0.92651062 23.29497406 -0.90072632 22.56755066 C-0.81863741 20.31537051 -0.72200748 18.06408209 -0.625 15.8125 C-0.56674891 14.28454148 -0.50944586 12.75654651 -0.453125 11.22851562 C-0.31485189 7.48497454 -0.15692996 3.74299157 0 0 Z " fill="#CF173D" transform="translate(193,217)"/>
<path d="M0 0 C0 11.55 0 23.1 0 35 C-4.95 35 -9.9 35 -15 35 C-16.171875 31.84244792 -17.34375 28.68489583 -18.515625 25.52734375 C-20.20474108 21.31527317 -20.20474108 21.31527317 -24 15 C-24 21.93 -24 28.86 -24 36 C-26.97 35.67 -29.94 35.34 -33 35 C-34.86225992 23.8264405 -34.4000144 12.20011522 -33 1 C-28.38 1 -23.76 1 -19 1 C-17.66216663 3.95637285 -16.32956861 6.91491314 -15 9.875 C-14.6184375 10.71675781 -14.236875 11.55851563 -13.84375 12.42578125 C-13.4828125 13.23144531 -13.121875 14.03710938 -12.75 14.8671875 C-12.41484375 15.61081543 -12.0796875 16.35444336 -11.734375 17.12060547 C-11 19 -11 19 -11 21 C-10.34 21 -9.68 21 -9 21 C-9 14.4 -9 7.8 -9 1 C-1 0 -1 0 0 0 Z M-9 23 C-8 26 -8 26 -8 26 Z " fill="#FAFCFD" transform="translate(338,216)"/>
<path d="M0 0 C4.43701552 4.19051465 6.66415505 10.0913364 7.18359375 16.13671875 C7.18688431 17.75896389 7.10333748 19.38104617 7 21 C6.01 21.495 6.01 21.495 5 22 C4.608125 23.093125 4.21625 24.18625 3.8125 25.3125 C2.35669125 28.83975801 0.52635578 30.57528682 -2.98828125 32.27734375 C-10.3180566 34.91036985 -16.93886393 34.19726266 -24 31 C-28.11598192 27.82726394 -29.92679085 25.07335234 -31 20 C-31.82218944 13.30864287 -30.71580786 7.68769362 -27 2 C-19.2382918 -4.46809017 -8.69953327 -5.04572929 0 0 Z M-20 7 C-21.9935874 11.6350907 -22.69222842 16.24068763 -20.8125 21 C-19.17531082 24.19030213 -19.17531082 24.19030213 -16 26 C-12.38586357 26.32855786 -9.90103721 26.45051861 -6.625 24.8125 C-4.63225834 22.58982661 -4.31693753 20.93167219 -4 18 C-2.68 18 -1.36 18 0 18 C-0.33 16.02 -0.66 14.04 -1 12 C-1.99 11.67 -2.98 11.34 -4 11 C-4.474375 10.195625 -4.94875 9.39125 -5.4375 8.5625 C-7.11637998 5.80913683 -8.00305973 5.03019822 -11 4 C-15.00066913 4 -16.73778379 4.64009892 -20 7 Z " fill="#C11A41" transform="translate(144,219)"/>
<path d="M0 0 C4.71252897 4.71252897 6.70174126 8.77880563 7.3125 15.375 C6.80254149 21.2905187 5.42006868 25.36692101 1.5 29.875 C-3.49863855 33.51262311 -9.72526042 34.40818284 -15.7578125 33.65625 C-21.70335043 32.16542855 -24.7045436 30.14915063 -28 25 C-30.51852821 20.56259315 -30.5472478 15.97653468 -30 11 C-28.3507951 5.79198453 -26.24406064 2.45446796 -22 -1 C-14.73913579 -4.46541246 -6.91155359 -3.98743476 0 0 Z M-19 7 C-20.40432107 9.80864214 -20.28352778 12.2438355 -20.375 15.375 C-20.42398438 16.51710937 -20.47296875 17.65921875 -20.5234375 18.8359375 C-20.28182057 22.16073615 -20.28182057 22.16073615 -17.6953125 24.37890625 C-14.129262 26.52370474 -12.09613631 26.65830762 -8 26 C-4.81671123 24.40282421 -4.81671123 24.40282421 -3 21 C-2.36505266 16.91739997 -2.19021006 13.06011923 -3 9 C-5.2199206 6.23327791 -6.48785048 5.16700528 -9.875 4.0625 C-13.71848305 3.98563034 -15.77080694 4.97236715 -19 7 Z " fill="#C61C43" transform="translate(182,219)"/>
<path d="M0 0 C4.03162131 2.81573552 6.41486446 6.51687109 7.72265625 11.203125 C8.37980831 17.77464555 7.10656174 22.52219758 3.72265625 28.203125 C0.17679748 32.39368536 -4.10356995 33.29057093 -9.36328125 34.0703125 C-14.95422527 34.32512764 -19.86644843 33.2416056 -24.19921875 29.578125 C-28.9360369 24.34506875 -29.64686685 19.74886499 -29.5546875 12.8046875 C-28.94452353 7.08117758 -26.70147474 3.36023143 -22.27734375 -0.234375 C-14.94412764 -4.05375839 -7.22158537 -4.07739611 0 0 Z M-17.27734375 6.203125 C-20.38722877 9.31301002 -20.21261821 12.93123918 -20.27734375 17.203125 C-19.59230975 20.56601918 -18.85429698 22.487703 -16.71484375 25.140625 C-12.96033085 26.77720755 -9.14328045 26.50600975 -5.27734375 25.203125 C-3.06213448 23.02747303 -2.35171635 21.65271069 -1.84375 18.58203125 C-1.8376206 14.16273622 -1.83614961 11.05157527 -3.90234375 7.078125 C-8.39735399 3.52943271 -12.30671409 3.57973713 -17.27734375 6.203125 Z " fill="#D3163C" transform="translate(293.27734375,218.796875)"/>
<path d="M0 0 C2.36914242 2.44811384 3.53273548 4.61233222 4 8 C3 9 3 9 -0.875 9.3125 C-3.08203125 9.30078125 -3.08203125 9.30078125 -5 9 C-6.0260734 7.68662604 -7.02727325 6.35335895 -8 5 C-11.62563814 4.66619186 -11.62563814 4.66619186 -15 5 C-15.33 6.32 -15.66 7.64 -16 9 C-15.35933594 9.10957031 -14.71867188 9.21914062 -14.05859375 9.33203125 C-1.64974958 11.6066778 -1.64974958 11.6066778 2.9375 15.75 C4.47754625 19.01127441 4.37514231 21.43614803 4 25 C2.1973592 29.1745366 0.16121964 31.19077407 -4 33 C-10.53203403 34.65207086 -15.95214013 33.93303024 -22 31 C-25.15577692 28.71206173 -25.84641986 27.60250669 -26.8125 23.8125 C-26.9053125 22.4203125 -26.9053125 22.4203125 -27 21 C-26 20 -26 20 -22.625 19.625 C-21.42875 19.74875 -20.2325 19.8725 -19 20 C-18.319375 21.2375 -18.319375 21.2375 -17.625 22.5 C-17.08875 23.325 -16.5525 24.15 -16 25 C-12.96394533 25.46331175 -10.04904022 25.2876453 -7 25 C-6.67 23.68 -6.34 22.36 -6 21 C-10.61904582 19.61242695 -10.61904582 19.61242695 -15.328125 18.59765625 C-19.19018538 17.92627158 -21.49492385 17.41884364 -24.5625 14.875 C-26.45029381 11.09941239 -26.82146673 8.14086291 -26 4 C-24.13003625 0.69160259 -22.71718259 -0.64974804 -19.3125 -2.3125 C-12.16274637 -3.79641113 -6.42937135 -3.60044796 0 0 Z " fill="#D5153D" transform="translate(257,219)"/>
<path d="M0 0 C0 2.31 0 4.62 0 7 C-6.27 7 -12.54 7 -19 7 C-19 9.31 -19 11.62 -19 14 C-17.02 13.34 -15.04 12.68 -13 12 C-13 12.33 -13 12.66 -13 13 C-9.37 13 -5.74 13 -2 13 C-2 15.64 -2 18.28 -2 21 C-7.61 20.67 -13.22 20.34 -19 20 C-19 22.31 -19 24.62 -19 27 C-13.06 27 -7.12 27 -1 27 C-0.67 29.31 -0.34 31.62 0 34 C-9.57 34 -19.14 34 -29 34 C-28.67 22.78 -28.34 11.56 -28 0 C-23.75125 -0.185625 -19.5025 -0.37125 -15.125 -0.5625 C-13.7858252 -0.62381104 -12.44665039 -0.68512207 -11.06689453 -0.74829102 C-9.49077393 -0.81294556 -9.49077393 -0.81294556 -7.8828125 -0.87890625 C-6.80402832 -0.9260376 -5.72524414 -0.97316895 -4.61376953 -1.02172852 C-2 -1 -2 -1 0 0 Z " fill="#F9FBFD" transform="translate(430,217)"/>
<path d="M0 0 C3.74324207 3.64207337 4.83623191 7.05398564 6 12 C4.02 12 2.04 12 0 12 C0 11.34 0 10.68 0 10 C-0.99 10 -1.98 10 -3 10 C-3.33 8.02 -3.66 6.04 -4 4 C-5.98 4 -7.96 4 -10 4 C-10 3.34 -10 2.68 -10 2 C-11.32 2 -12.64 2 -14 2 C-14 2.66 -14 3.32 -14 4 C-18.75 5.125 -18.75 5.125 -21 4 C-21 4.99 -21 5.98 -21 7 C-21.66 7 -22.32 7 -23 7 C-23 11.95 -23 16.9 -23 22 C-22.34 22 -21.68 22 -21 22 C-21.33 23.98 -21.66 25.96 -22 28 C-21.34 28 -20.68 28 -20 28 C-20 28.66 -20 29.32 -20 30 C-21.32 29.67 -22.64 29.34 -24 29 C-24 27.02 -24 25.04 -24 23 C-24.66 23 -25.32 23 -26 23 C-26.33 21.68 -26.66 20.36 -27 19 C-27.66 19.33 -28.32 19.66 -29 20 C-29 16.37 -29 12.74 -29 9 C-28.34 9 -27.68 9 -27 9 C-26.938125 7.741875 -26.87625 6.48375 -26.8125 5.1875 C-26.3286677 1.27537023 -26.3286677 1.27537023 -23.6875 -0.9375 C-15.74230528 -4.07862349 -7.48913614 -4.34369896 0 0 Z " fill="#D2163F" transform="translate(144,219)"/>
<path d="M0 0 C1.32 0.33 2.64 0.66 4 1 C4 2.32 4 3.64 4 5 C3.01 4.67 2.02 4.34 1 4 C0.97096423 7.10414702 0.9531893 10.20825909 0.9375 13.3125 C0.92912109 14.19357422 0.92074219 15.07464844 0.91210938 15.98242188 C0.90888672 16.82998047 0.90566406 17.67753906 0.90234375 18.55078125 C0.89710693 19.33106689 0.89187012 20.11135254 0.88647461 20.9152832 C0.91862137 23.1961555 0.91862137 23.1961555 2 26 C2.99 26 3.98 26 5 26 C5 26.66 5 27.32 5 28 C7.31 28 9.62 28 12 28 C11.67 28.99 11.34 29.98 11 31 C11.99 31.33 12.98 31.66 14 32 C12.39620659 32.05416188 10.79188594 32.09286638 9.1875 32.125 C8.29417969 32.14820313 7.40085938 32.17140625 6.48046875 32.1953125 C4 32 4 32 1 30 C1 29.34 1 28.68 1 28 C-0.98 28 -2.96 28 -5 28 C-9.14163215 21.66573907 -9.1947336 17.90085611 -7.67578125 10.5390625 C-7 8 -7 8 -6 6 C-5.34 6 -4.68 6 -4 6 C-4 5.01 -4 4.02 -4 3 C-2.68 2.67 -1.36 2.34 0 2 C0 1.34 0 0.68 0 0 Z " fill="#DA133B" transform="translate(161,219)"/>
<path d="M0 0 C3.3 0 6.6 0 10 0 C9.34 0.61875 8.68 1.2375 8 1.875 C5.7715451 3.75637427 5.7715451 3.75637427 6 6 C6.66 6.33 7.32 6.66 8 7 C7.83701416 7.72469482 7.67402832 8.44938965 7.50610352 9.19604492 C7.0300967 11.83325585 6.88509634 14.18993341 6.90234375 16.86328125 C6.90556641 17.74951172 6.90878906 18.63574219 6.91210938 19.54882812 C6.92048828 20.46083984 6.92886719 21.37285156 6.9375 22.3125 C6.94201172 23.24384766 6.94652344 24.17519531 6.95117188 25.13476562 C6.96290766 27.42324373 6.97932637 29.71158808 7 32 C4.21136993 33.39431504 2.07921132 33.25660094 -1 33 C-1.66 32.01 -2.32 31.02 -3 30 C-2.01 29.67 -1.02 29.34 0 29 C0 19.43 0 9.86 0 0 Z " fill="#DA1338" transform="translate(195,219)"/>
<path d="M0 0 C2.36914242 2.44811384 3.53273548 4.61233222 4 8 C3 9 3 9 -0.875 9.3125 C-3.08203125 9.30078125 -3.08203125 9.30078125 -5 9 C-6.0260734 7.68662604 -7.02727325 6.35335895 -8 5 C-11.5 4.33333333 -11.5 4.33333333 -15 5 C-16.98239527 6.86124923 -16.98239527 6.86124923 -18 9 C-17.47731534 6.23723823 -16.89130413 3.6739124 -16 1 C-17.65 0.67 -19.3 0.34 -21 0 C-21 0.99 -21 1.98 -21 3 C-21.99 3 -22.98 3 -24 3 C-23.88601335 4.62580966 -23.75844341 6.25067157 -23.625 7.875 C-23.55539063 8.77992188 -23.48578125 9.68484375 -23.4140625 10.6171875 C-23.20431868 13.17941903 -23.20431868 13.17941903 -21 15 C-18.10116917 15.24339551 -18.10116917 15.24339551 -14.875 15.125 C-13.23144531 15.09792969 -13.23144531 15.09792969 -11.5546875 15.0703125 C-10.29011719 15.03550781 -10.29011719 15.03550781 -9 15 C-9.33 15.99 -9.66 16.98 -10 18 C-18.9752527 18.62739631 -18.9752527 18.62739631 -23.0625 16.125 C-26.06182982 12.83541246 -26.35027148 10.49995383 -26.27734375 6.03515625 C-25.82677364 2.72886011 -24.44491923 1.18755931 -22 -1 C-14.69781042 -4.56618561 -6.94036549 -3.88660467 0 0 Z " fill="#C11C44" transform="translate(257,219)"/>
<path d="M0 0 C2.4375 0.75 2.4375 0.75 5 2 C5.9375 3.875 5.9375 3.875 6 6 C5.0625 8.25 5.0625 8.25 4 10 C4.66 10 5.32 10 6 10 C5.67 10.99 5.34 11.98 5 13 C5.165 13.763125 5.33 14.52625 5.5 15.3125 C6.08779276 18.47188607 5.52547039 20.84717763 5 24 C5.185625 24.886875 5.37125 25.77375 5.5625 26.6875 C6 29 6 29 4 32 C1.5 32.3125 1.5 32.3125 -1 32 C-3 30 -3 30 -3.125 27.375 C-3.08375 26.59125 -3.0425 25.8075 -3 25 C-1.68 24.34 -0.36 23.68 1 23 C0.34 22.443125 -0.32 21.88625 -1 21.3125 C-3 19 -3 19 -3.5 16.5 C-2.85643482 13.28217411 -1.46694247 12.08148271 1 10 C-0.32 9.01 -1.64 8.02 -3 7 C-2.25 2.25 -2.25 2.25 0 0 Z " fill="#A60B16" transform="translate(86,207)"/>
<path d="M0 0 C4.74666336 0.41882324 7.87414574 2.52383448 11 6 C13.76358142 10.88232717 14.92332519 15.43953051 14 21 C12.30496134 26.5225453 10.24046694 31.14156348 5 34 C2.29715756 34.58385423 -0.22570717 34.81191235 -3 35 C-1.515 34.505 -1.515 34.505 0 34 C0 33.34 0 32.68 0 32 C1.65 32 3.3 32 5 32 C5.33 29.36 5.66 26.72 6 24 C5.34 24 4.68 24 4 24 C3.34 25.32 2.68 26.64 2 28 C0.68 27.67 -0.64 27.34 -2 27 C-1.360625 26.71125 -0.72125 26.4225 -0.0625 26.125 C2.15206079 25.17176549 2.15206079 25.17176549 3 23 C3.09632897 21.18958207 3.12981533 19.37547247 3.125 17.5625 C3.12886719 16.11037109 3.12886719 16.11037109 3.1328125 14.62890625 C3.11213973 11.88982171 3.11213973 11.88982171 2 9 C3.875 9.3125 3.875 9.3125 6 10 C6.99 11.485 6.99 11.485 8 13 C8.66 13 9.32 13 10 13 C9.12527407 8.04485498 9.12527407 8.04485498 5.875 4.5625 C5.25625 4.376875 4.6375 4.19125 4 4 C4 3.34 4 2.68 4 2 C2.68 1.34 1.36 0.68 0 0 Z " fill="#CC1D45" transform="translate(287,217)"/>
<path d="M0 0 C2.64 0 5.28 0 8 0 C9.12866889 7.18082254 9.11434249 14.24205132 9.0625 21.5 C9.05798828 22.70398438 9.05347656 23.90796875 9.04882812 25.1484375 C9.0371195 28.09901073 9.02071995 31.04947859 9 34 C7.1875 34.625 7.1875 34.625 5 35 C2.63158688 33.42105792 0.93254772 32.0245738 -1 30 C-0.34 28.35 0.32 26.7 1 25 C1.99 25 2.98 25 4 25 C4 23.35 4 21.7 4 20 C3.34 20 2.68 20 2 20 C1.75 17.75 1.75 17.75 2 15 C2.639375 14.4225 3.27875 13.845 3.9375 13.25 C6.99945436 9.90968616 6.8121707 6.39520551 7 2 C5.02 2 3.04 2 1 2 C1 8.6 1 15.2 1 22 C0.67 22 0.34 22 0 22 C0 14.74 0 7.48 0 0 Z M4 18 C5 20 5 20 5 20 Z " fill="#C61741" transform="translate(218,217)"/>
<path d="M0 0 C0.33 0 0.66 0 1 0 C1.02578125 0.90363281 1.0515625 1.80726563 1.078125 2.73828125 C1.13484375 3.91777344 1.1915625 5.09726563 1.25 6.3125 C1.29640625 7.48425781 1.3428125 8.65601563 1.390625 9.86328125 C1.71307282 13.04826389 1.71307282 13.04826389 3.83203125 14.890625 C7.07475206 16.54996321 9.41299204 16.44050975 13 16 C15.90809543 14.14283813 15.90809543 14.14283813 18 12 C19.5 13.375 19.5 13.375 21 15 C21 15.66 21 16.32 21 17 C21.99 17 22.98 17 24 17 C24.33 16.01 24.66 15.02 25 14 C25.33 14.66 25.66 15.32 26 16 C22.62793358 21.05809963 19.68430516 23.16276561 13.765625 24.66015625 C8.9559292 25.25117819 4.56672941 24.57759743 0 23 C-2.6875 20.875 -2.6875 20.875 -4 19 C-1.6875 18.8125 -1.6875 18.8125 1 19 C1.45375 19.495 1.9075 19.99 2.375 20.5 C4.08407763 22.39868105 4.08407763 22.39868105 7.6875 22.1875 C8.780625 22.125625 9.87375 22.06375 11 22 C11 21.34 11 20.68 11 20 C9.02 19.67 7.04 19.34 5 19 C5 18.34 5 17.68 5 17 C4.01 17 3.02 17 2 17 C-0.49118953 13.2632157 -0.2065226 11.25548181 -0.125 6.8125 C-0.10695312 5.54019531 -0.08890625 4.26789063 -0.0703125 2.95703125 C-0.04710937 1.98121094 -0.02390625 1.00539062 0 0 Z " fill="#C41D42" transform="translate(161,228)"/>
<path d="M0 0 C0.99 0 1.98 0 3 0 C3 0.66 3 1.32 3 2 C3.99 2 4.98 2 6 2 C7.50966707 6.71770961 7.8316863 12.33752579 6 17 C4.625 18.75 4.625 18.75 3 20 C2.01 20 1.02 20 0 20 C0 19.34 0 18.68 0 18 C-0.99 17.67 -1.98 17.34 -3 17 C-3 16.34 -3 15.68 -3 15 C-2.34 15 -1.68 15 -1 15 C-1.01160156 14.00097656 -1.02320313 13.00195312 -1.03515625 11.97265625 C-1.04417969 10.68230469 -1.05320313 9.39195312 -1.0625 8.0625 C-1.07410156 6.77472656 -1.08570313 5.48695313 -1.09765625 4.16015625 C-1 1 -1 1 0 0 Z " fill="#D3163E" transform="translate(182,225)"/>
<path d="M0 0 C1.19625 0.12375 2.3925 0.2475 3.625 0.375 C5.25 2.8125 5.25 2.8125 6.625 5.375 C9.21622743 6.26158466 9.21622743 6.26158466 11.625 6.375 C11.625 7.035 11.625 7.695 11.625 8.375 C9.645 8.375 7.665 8.375 5.625 8.375 C5.625 9.365 5.625 10.355 5.625 11.375 C9.585 11.705 13.545 12.035 17.625 12.375 C17.625 11.715 17.625 11.055 17.625 10.375 C19.275 10.375 20.925 10.375 22.625 10.375 C21.625 12.375 21.625 12.375 18.125 13.5625 C12.38967363 14.85989878 7.07401056 14.54626592 1.75 12 C1.04875 11.46375 0.3475 10.9275 -0.375 10.375 C-1.24125 9.7253125 -1.24125 9.7253125 -2.125 9.0625 C-3.93146948 6.6237662 -4.11598442 4.35367912 -4.375 1.375 C-3.375 0.375 -3.375 0.375 0 0 Z " fill="#C21C44" transform="translate(234.375,238.625)"/>
<path d="M0 0 C1.2065625 0.0309375 1.2065625 0.0309375 2.4375 0.0625 C3.4375 3.0625 3.4375 3.0625 2.4375 6.625 C0.4375 10.0625 0.4375 10.0625 -3.125 11.5 C-6.5625 12.0625 -6.5625 12.0625 -8.5625 12.0625 C-9.490625 12.413125 -10.41875 12.76375 -11.375 13.125 C-14.68393927 14.09821743 -16.30904018 14.01939995 -19.5625 13.0625 C-19.2325 12.0725 -18.9025 11.0825 -18.5625 10.0625 C-17.510625 9.876875 -17.510625 9.876875 -16.4375 9.6875 C-9.94068249 8.42974317 -9.94068249 8.42974317 -5.25 4 C-4.693125 3.030625 -4.13625 2.06125 -3.5625 1.0625 C-2.5625 0.0625 -2.5625 0.0625 0 0 Z " fill="#DB133D" transform="translate(145.5625,237.9375)"/>
<path d="M0 0 C1.98 0 3.96 0 6 0 C5.67 0.66 5.34 1.32 5 2 C3.71312989 5.86061033 3.86242382 8.94150283 4 13 C7.465 12.505 7.465 12.505 11 12 C11.33 12.99 11.66 13.98 12 15 C7.96961634 16.34346122 4.20161608 16.26676927 0 16 C-1.734375 14.80859375 -1.734375 14.80859375 -3 13 C-3.29296875 10.51953125 -3.29296875 10.51953125 -3.1875 7.8125 C-3.16042969 6.91144531 -3.13335937 6.01039063 -3.10546875 5.08203125 C-3.07066406 4.39496094 -3.03585938 3.70789063 -3 3 C-2.01 3 -1.02 3 0 3 C0 2.01 0 1.02 0 0 Z " fill="#DA143B" transform="translate(236,219)"/>
<path d="M0 0 C2.4375 0.75 2.4375 0.75 5 2 C5.9375 3.875 5.9375 3.875 6 6 C5.0625 8.25 5.0625 8.25 4 10 C4.66 10 5.32 10 6 10 C6 10.66 6 11.32 6 12 C5.34 12 4.68 12 4 12 C4 14.31 4 16.62 4 19 C2.35 18.67 0.7 18.34 -1 18 C-0.125 11.125 -0.125 11.125 1 10 C-0.32 9.01 -1.64 8.02 -3 7 C-2.25 2.25 -2.25 2.25 0 0 Z " fill="#AD0710" transform="translate(86,207)"/>
<path d="M0 0 C1.32 0 2.64 0 4 0 C4 0.66 4 1.32 4 2 C4.969375 1.814375 5.93875 1.62875 6.9375 1.4375 C8.4534375 1.2209375 8.4534375 1.2209375 10 1 C11 2 11 2 11.0625 5.0625 C11.041875 6.031875 11.02125 7.00125 11 8 C11.99 8 12.98 8 14 8 C14 8.66 14 9.32 14 10 C15.98 10 17.96 10 20 10 C21.4783226 12.95664519 21.06032783 15.74229737 21 19 C16.15544041 17.41450777 16.15544041 17.41450777 14 16 C13.0625 12.8125 13.0625 12.8125 13 10 C12.401875 9.938125 11.80375 9.87625 11.1875 9.8125 C9 9 9 9 7.625 6.5625 C5.53313042 3.26378258 3.70649471 2.90603204 0 2 C0 1.34 0 0.68 0 0 Z " fill="#B61C43" transform="translate(130,221)"/>
<path d="M0 0 C0.66 1.32 1.32 2.64 2 4 C2.66 4.33 3.32 4.66 4 5 C4 3.68 4 2.36 4 1 C19.345 0.505 19.345 0.505 35 0 C35 2.64 35 5.28 35 8 C34.34 7.67 33.68 7.34 33 7 C33.33 5.35 33.66 3.7 34 2 C24.43 2 14.86 2 5 2 C5 3.65 5 5.3 5 7 C8.3 7 11.6 7 15 7 C15 7.33 15 7.66 15 8 C11.37 8 7.74 8 4 8 C4 7.34 4 6.68 4 6 C2.02 6.99 2.02 6.99 0 8 C0 6.02 0 4.04 0 2 C-6.27 2 -12.54 2 -19 2 C-19 3.98 -19 5.96 -19 8 C-19.33 8 -19.66 8 -20 8 C-20 5.69 -20 3.38 -20 1 C-10.1 0.505 -10.1 0.505 0 0 Z " fill="#E8EEFD" transform="translate(363,216)"/>
<path d="M0 0 C0.33 0.66 0.66 1.32 1 2 C3.02463255 2.65213292 3.02463255 2.65213292 5 3 C5 3.66 5 4.32 5 5 C5.804375 5.309375 6.60875 5.61875 7.4375 5.9375 C10 7 10 7 11 8 C11.04080783 9.99958364 11.04254356 12.00045254 11 14 C10.01 14.33 9.02 14.66 8 15 C7.67 13.68 7.34 12.36 7 11 C5.68 10.67 4.36 10.34 3 10 C3 9.01 3 8.02 3 7 C1.35 7 -0.3 7 -2 7 C-2 6.34 -2 5.68 -2 5 C-2.66 5 -3.32 5 -4 5 C-4.33 4.01 -4.66 3.02 -5 2 C-3.35 1.34 -1.7 0.68 0 0 Z " fill="#DA1439" transform="translate(286,216)"/>
<path d="M0 0 C0.33 0 0.66 0 1 0 C1.25 5.625 1.25 5.625 -1 9 C-3.625 9.1875 -3.625 9.1875 -6 9 C-6 9.66 -6 10.32 -6 11 C-8.625 12.1875 -8.625 12.1875 -12 13 C-15.375 11.625 -15.375 11.625 -18 10 C-18 9.34 -18 8.68 -18 8 C-14.52674819 6.8422494 -11.63932552 6.93133348 -8 7 C-8 6.34 -8 5.68 -8 5 C-7.236875 4.731875 -6.47375 4.46375 -5.6875 4.1875 C-3.11044096 3.04879949 -1.85886437 2.04475081 0 0 Z " fill="#DC133A" transform="translate(293,240)"/>
<path d="M0 0 C1.46751239 0.00399142 2.93502584 0.01874717 4.40234375 0.04296875 C5.14806641 0.04361328 5.89378906 0.04425781 6.66210938 0.04492188 C12.19956216 0.09018716 12.19956216 0.09018716 13.33984375 1.23046875 C13.52734375 4.16796875 13.52734375 4.16796875 13.33984375 7.23046875 C10.48191059 10.08840191 8.19318791 9.63846816 4.21484375 9.85546875 C2.93351562 9.93023437 1.6521875 10.005 0.33203125 10.08203125 C-0.65539062 10.13101563 -1.6428125 10.18 -2.66015625 10.23046875 C-2.66015625 9.24046875 -2.66015625 8.25046875 -2.66015625 7.23046875 C0.63984375 7.23046875 3.93984375 7.23046875 7.33984375 7.23046875 C7.66984375 5.25046875 7.99984375 3.27046875 8.33984375 1.23046875 C3.71984375 1.56046875 -0.90015625 1.89046875 -5.66015625 2.23046875 C-3.66015625 0.23046875 -3.66015625 0.23046875 0 0 Z " fill="#AB0A12" transform="translate(110.66015625,189.76953125)"/>
<path d="M0 0 C0.2475 0.598125 0.495 1.19625 0.75 1.8125 C2.23091327 4.40409822 3.42300536 5.49675313 6 7 C9.15118325 7.72045367 9.15118325 7.72045367 12 8 C12 8.66 12 9.32 12 10 C8.7 10.33 5.4 10.66 2 11 C2 11.66 2 12.32 2 13 C3.65 13.33 5.3 13.66 7 14 C4.14522351 15.20779006 3.03101934 15.01121976 0.0625 13.9375 C-3.62128776 11.6069404 -5.53395734 9.58697114 -8 6 C-7.67 5.01 -7.34 4.02 -7 3 C-6.62875 3.804375 -6.2575 4.60875 -5.875 5.4375 C-4.1890663 8.31172896 -4.1890663 8.31172896 -0.8125 8.8125 C0.115625 8.874375 1.04375 8.93625 2 9 C1.67 8.443125 1.34 7.88625 1 7.3125 C-0.1309601 4.69715478 -0.15662974 2.8193354 0 0 Z " fill="#C21C41" transform="translate(273,237)"/>
<path d="M0 0 C-0.99 0.680625 -0.99 0.680625 -2 1.375 C-2.99 2.179375 -2.99 2.179375 -4 3 C-4 3.66 -4 4.32 -4 5 C-3.34 5 -2.68 5 -2 5 C-2 5.66 -2 6.32 -2 7 C-0.35 7 1.3 7 3 7 C2.67 7.99 2.34 8.98 2 10 C0.948125 9.649375 -0.10375 9.29875 -1.1875 8.9375 C-4.7954681 8.05029473 -6.52632489 7.94737118 -10 9 C-9.67 8.01 -9.34 7.02 -9 6 C-8.34 6 -7.68 6 -7 6 C-7.33 5.34 -7.66 4.68 -8 4 C-10.52733235 3.34444881 -10.52733235 3.34444881 -13 3 C-13.33 3.99 -13.66 4.98 -14 6 C-16.5625 7.1875 -16.5625 7.1875 -19 8 C-17.54163185 4.15521125 -15.63541701 2.8177085 -12 1 C-8.14173458 -0.46347999 -4.06793382 -0.0677989 0 0 Z " fill="#C51945" transform="translate(286,216)"/>
<path d="M0 0 C-1.65 0.33 -3.3 0.66 -5 1 C-5 1.99 -5 2.98 -5 4 C-5.99 4 -6.98 4 -8 4 C-7.88601335 5.62580966 -7.75844341 7.25067157 -7.625 8.875 C-7.55539063 9.77992188 -7.48578125 10.68484375 -7.4140625 11.6171875 C-7.20431868 14.17941903 -7.20431868 14.17941903 -5 16 C-2.10116917 16.24339551 -2.10116917 16.24339551 1.125 16.125 C2.76855469 16.09792969 2.76855469 16.09792969 4.4453125 16.0703125 C5.70988281 16.03550781 5.70988281 16.03550781 7 16 C6.67 16.99 6.34 17.98 6 19 C-2.9752527 19.62739631 -2.9752527 19.62739631 -7.0625 17.125 C-10.06381136 13.83323915 -10.3335441 11.50235135 -10.29296875 7.0390625 C-9.83745033 3.86865433 -8.24684343 2.1807598 -6 0 C-3.50907189 -1.24546405 -2.58919267 -0.7767578 0 0 Z " fill="#B51E46" transform="translate(241,218)"/>
<path d="M0 0 C3.3 0 6.6 0 10 0 C9.67 1.98 9.34 3.96 9 6 C7.741875 6.020625 6.48375 6.04125 5.1875 6.0625 C4.47980469 6.07410156 3.77210937 6.08570313 3.04296875 6.09765625 C1 6 1 6 -2 5 C-2 4.01 -2 3.02 -2 2 C-1.34 2 -0.68 2 0 2 C0 1.34 0 0.68 0 0 Z " fill="#CD0101" transform="translate(109,191)"/>
<path d="M0 0 C2 2 2 2 2.1953125 4.6015625 C2.17210937 5.59929687 2.14890625 6.59703125 2.125 7.625 C2.10695312 8.62789062 2.08890625 9.63078125 2.0703125 10.6640625 C2.03550781 11.82035156 2.03550781 11.82035156 2 13 C0.1875 13.625 0.1875 13.625 -2 14 C-4.36841312 12.42105792 -6.06745228 11.0245738 -8 9 C-7.34 8.01 -6.68 7.02 -6 6 C-5.01 6 -4.02 6 -3 6 C-3 6.99 -3 7.98 -3 9 C-2.34 8.67 -1.68 8.34 -1 8 C-0.53476937 6.10466658 -0.53476937 6.10466658 -0.375 3.9375 C-0.25125 2.638125 -0.1275 1.33875 0 0 Z " fill="#CC1D3B" transform="translate(225,238)"/>
<path d="M0 0 C0.99 0 1.98 0 3 0 C3 3.3 3 6.6 3 10 C3.66 10 4.32 10 5 10 C4.67 11.98 4.34 13.96 4 16 C4.66 16 5.32 16 6 16 C6 16.66 6 17.32 6 18 C4.68 17.67 3.36 17.34 2 17 C2 15.02 2 13.04 2 11 C1.34 11 0.68 11 0 11 C-1.28571429 3.57142857 -1.28571429 3.57142857 0 0 Z " fill="#DE1339" transform="translate(118,231)"/>
<path d="M0 0 C0.99 0.33 1.98 0.66 3 1 C3 3.31 3 5.62 3 8 C2.01 8 1.02 8 0 8 C0 9.32 0 10.64 0 12 C-1.98 12 -3.96 12 -6 12 C-5.67 11.34 -5.34 10.68 -5 10 C-4.34 10 -3.68 10 -3 10 C-3 7.36 -3 4.72 -3 2 C-2.01 2 -1.02 2 0 2 C0 1.34 0 0.68 0 0 Z " fill="#DC1336" transform="translate(198,238)"/>
<path d="M0 0 C0.99 0.33 1.98 0.66 3 1 C2.34 2.98 1.68 4.96 1 7 C0.01 7 -0.98 7 -2 7 C-3.423125 7.5259375 -3.423125 7.5259375 -4.875 8.0625 C-8.15095043 9.04528513 -9.77164545 8.94951604 -13 8 C-12.67 7.01 -12.34 6.02 -12 5 C-11.29875 4.87625 -10.5975 4.7525 -9.875 4.625 C-6.80364682 3.95731453 -3.9325642 3.13303617 -1 2 C-0.67 1.34 -0.34 0.68 0 0 Z " fill="#DC1238" transform="translate(139,243)"/>
<path d="M0 0 C2.40013691 0.3985133 4.79337044 0.81794313 7.1875 1.25 C8.19780273 1.41435547 8.19780273 1.41435547 9.22851562 1.58203125 C13.81782941 2.43273332 16.65411083 3.74862747 20 7 C21.50934217 10.01868434 21.17510672 12.67297229 21 16 C20.34 16.99 19.68 17.98 19 19 C18.95101563 18.22914063 18.90203125 17.45828125 18.8515625 16.6640625 C18.77679688 15.66117188 18.70203125 14.65828125 18.625 13.625 C18.55539062 12.62726563 18.48578125 11.62953125 18.4140625 10.6015625 C18.23636036 7.84491121 18.23636036 7.84491121 16 6 C10.70008842 3.61503979 5.68631357 3.79772007 0 4 C0 2.68 0 1.36 0 0 Z " fill="#B02049" transform="translate(240,228)"/>
<path d="M0 0 C0.99 0 1.98 0 3 0 C3 1.32 3 2.64 3 4 C-13.335 4.495 -13.335 4.495 -30 5 C-30.33 5.99 -30.66 6.98 -31 8 C-31.66 6.68 -32.32 5.36 -33 4 C-31.0769111 2.0769111 -27.52929515 2.74678162 -24.90234375 2.68359375 C-23.83905602 2.6524221 -23.83905602 2.6524221 -22.75428772 2.62062073 C-20.48212695 2.55505402 -18.20984736 2.4962077 -15.9375 2.4375 C-14.40037817 2.39432151 -12.8632685 2.35070745 -11.32617188 2.30664062 C-7.5509041 2.19936551 -3.7755164 2.09811863 0 2 C0 1.34 0 0.68 0 0 Z " fill="#A60D1A" transform="translate(87,241)"/>
<path d="M0 0 C1.32 0 2.64 0 4 0 C4 0.99 4 1.98 4 3 C4.99 3 5.98 3 7 3 C6.67 4.65 6.34 6.3 6 8 C3.625 8.125 3.625 8.125 1 8 C-1 6 -1 6 -1.1875 3.4375 C-1 1 -1 1 0 0 Z " fill="#B60A0E" transform="translate(84,231)"/>
<path d="M0 0 C0.33 0 0.66 0 1 0 C1 6.27 1 12.54 1 19 C-1.70879335 20.35439668 -4.00933268 20.06501451 -7 20 C-7.33 19.34 -7.66 18.68 -8 18 C-6.35 18 -4.7 18 -3 18 C-3.33 16.68 -3.66 15.36 -4 14 C-3.01 13.67 -2.02 13.34 -1 13 C-0.67 8.71 -0.34 4.42 0 0 Z " fill="#C92743" transform="translate(201,232)"/>
<path d="M0 0 C1.98 0 3.96 0 6 0 C7.4783226 2.95664519 7.06032783 5.74229737 7 9 C4.69 8.01 2.38 7.02 0 6 C0 4.02 0 2.04 0 0 Z " fill="#A4072B" transform="translate(144,231)"/>
<path d="M0 0 C0 0.66 0 1.32 0 2 C-1.65 2 -3.3 2 -5 2 C-4.67 2.99 -4.34 3.98 -4 5 C-5.65 5 -7.3 5 -9 5 C-9 5.99 -9 6.98 -9 8 C-9.66 8 -10.32 8 -11 8 C-11.66 12.29 -12.32 16.58 -13 21 C-13.33 21 -13.66 21 -14 21 C-14.38240972 13.73421534 -13.46762908 8.76855946 -8.4375 3.125 C-5.09221725 0.20859965 -4.58438382 0 0 0 Z " fill="#B91E46" transform="translate(166,217)"/>
<path d="M0 0 C0.66 1.32 1.32 2.64 2 4 C2.66 4.66 3.32 5.32 4 6 C2.02 6.99 2.02 6.99 0 8 C0 6.02 0 4.04 0 2 C-6.27 2 -12.54 2 -19 2 C-19 3.98 -19 5.96 -19 8 C-19.33 8 -19.66 8 -20 8 C-20 5.69 -20 3.38 -20 1 C-10.1 0.505 -10.1 0.505 0 0 Z " fill="#E1E8F8" transform="translate(363,216)"/>
<path d="M0 0 C0.99 1.32 1.98 2.64 3 4 C2.67 4.66 2.34 5.32 2 6 C-0.64 6 -3.28 6 -6 6 C-6 5.34 -6 4.68 -6 4 C-6.99 3.67 -7.98 3.34 -9 3 C-8.34 3 -7.68 3 -7 3 C-7 2.34 -7 1.68 -7 1 C-6.34 1.33 -5.68 1.66 -5 2 C-4.67 1.67 -4.34 1.34 -4 1 C-1.9375 1.4375 -1.9375 1.4375 0 2 C0 1.34 0 0.68 0 0 Z " fill="#DB1137" transform="translate(178,217)"/>
<path d="M0 0 C2 1 2 1 2.8125 2.9375 C4.4042016 5.70203436 6.06171168 5.92501647 9 7 C10.625 8.5 10.625 8.5 12 10 C12.99 10.66 13.98 11.32 15 12 C9.426073 11.77249278 6.48056439 10.43166366 2.37890625 6.6328125 C0.59115634 4.51587351 0.08103086 2.75504918 0 0 Z " fill="#BC1E4A" transform="translate(265,240)"/>
<path d="M0 0 C1.98 0 3.96 0 6 0 C5.236875 0.556875 4.47375 1.11375 3.6875 1.6875 C0.84836915 3.77607643 0.84836915 3.77607643 -0.125 6.75 C-2 9 -2 9 -4.62890625 9.31640625 C-7.43550512 9.31282183 -10.2020411 9.21376596 -13 9 C-13.33 8.34 -13.66 7.68 -14 7 C-13.07767578 7.03480469 -13.07767578 7.03480469 -12.13671875 7.0703125 C-10.92435547 7.09738281 -10.92435547 7.09738281 -9.6875 7.125 C-8.48673828 7.15980469 -8.48673828 7.15980469 -7.26171875 7.1953125 C-4.71611424 7.15817322 -4.71611424 7.15817322 -2 5 C-0.79549696 2.44816596 -0.79549696 2.44816596 0 0 Z " fill="#B41F46" transform="translate(140,237)"/>
<path d="M0 0 C0.99 0.495 0.99 0.495 2 1 C2 1.66 2 2.32 2 3 C2.66 3 3.32 3 4 3 C5.25664978 5.90600261 6 7.79604584 6 11 C6.66 11 7.32 11 8 11 C8.33 12.98 8.66 14.96 9 17 C8.34 17 7.68 17 7 17 C5.82866942 14.54379149 4.66278278 12.08525083 3.5 9.625 C3.16613281 8.92632812 2.83226562 8.22765625 2.48828125 7.5078125 C0 2.2265625 0 2.2265625 0 0 Z " fill="#B62147" transform="translate(205,234)"/>
<path d="M0 0 C2.06568201 3.09852301 3.60295419 6.19392874 5.1875 9.5625 C5.73792969 10.71878906 6.28835937 11.87507812 6.85546875 13.06640625 C7.23316406 14.03449219 7.61085937 15.00257813 8 16 C7.67 16.66 7.34 17.32 7 18 C6.67 17.01 6.34 16.02 6 15 C5.34 15 4.68 15 4 15 C2.50178941 11.62902617 2 9.79557881 2 6 C1.34 6 0.68 6 0 6 C0 4.02 0 2.04 0 0 Z " fill="#BB2045" transform="translate(209,223)"/>
<path d="M0 0 C2.3125 -0.1875 2.3125 -0.1875 5 0 C5.4228125 0.4846875 5.845625 0.969375 6.28125 1.46875 C8.77750228 3.69268385 10.89986598 3.51074548 14.1875 3.6875 C15.27417969 3.75324219 16.36085937 3.81898438 17.48046875 3.88671875 C18.72763672 3.94279297 18.72763672 3.94279297 20 4 C20 4.33 20 4.66 20 5 C13.46144478 6.33192792 8.11675948 5.86509924 2 3 C1.34 2.01 0.68 1.02 0 0 Z " fill="#B7214B" transform="translate(157,247)"/>
<path d="M0 0 C2.97 0.495 2.97 0.495 6 1 C5.67 1.66 5.34 2.32 5 3 C-2.07765837 5.03836561 -8.0535253 5.40454894 -15 3 C-12.3775669 2.23558865 -11.11099018 1.97621639 -8.375 2.5625 C-7.59125 2.706875 -6.8075 2.85125 -6 3 C-5.34 2.34 -4.68 1.68 -4 1 C-4 1.66 -4 2.32 -4 3 C-3.01 2.67 -2.02 2.34 -1 2 C-0.67 1.34 -0.34 0.68 0 0 Z " fill="#BB2149" transform="translate(137,248)"/>
<path d="M0 0 C1.32 0.33 2.64 0.66 4 1 C4.96661363 4.12180401 4.98988909 6.52083795 4.5625 9.75 C4.46066406 10.54921875 4.35882813 11.3484375 4.25390625 12.171875 C4.12822266 13.07679688 4.12822266 13.07679688 4 14 C3.34 14 2.68 14 2 14 C1.93941406 13.24074219 1.87882812 12.48148438 1.81640625 11.69921875 C1.73261719 10.70535156 1.64882813 9.71148437 1.5625 8.6875 C1.48128906 7.70136719 1.40007812 6.71523437 1.31640625 5.69921875 C1.08187441 2.90624401 1.08187441 2.90624401 0 0 Z " fill="#BB1E46" transform="translate(289,226)"/>
<path d="M0 0 C1.98 0.495 1.98 0.495 4 1 C4 2.98 4 4.96 4 7 C2.35 6.67 0.7 6.34 -1 6 C-0.67 4.02 -0.34 2.04 0 0 Z " fill="#C90304" transform="translate(86,219)"/>
<path d="M0 0 C0 0.99 0 1.98 0 3 C-7.28571429 7.57142857 -7.28571429 7.57142857 -12 7 C-11.01 6.67 -10.02 6.34 -9 6 C-9 5.34 -9 4.68 -9 4 C-7.35 4 -5.7 4 -4 4 C-4 3.34 -4 2.68 -4 2 C-2.68 1.34 -1.36 0.68 0 0 Z " fill="#B7244F" transform="translate(296,245)"/>
<path d="M0 0 C0.66 0 1.32 0 2 0 C2.33 1.98 2.66 3.96 3 6 C1.02 6 -0.96 6 -3 6 C-3 4.68 -3 3.36 -3 2 C-2.01 2 -1.02 2 0 2 C0 1.34 0 0.68 0 0 Z " fill="#D9153B" transform="translate(256,221)"/>
<path d="M0 0 C0.66 0.33 1.32 0.66 2 1 C0.99806563 4.79303725 0.18975773 7.71536341 -2 11 C-2.66 11 -3.32 11 -4 11 C-4 10.34 -4 9.68 -4 9 C-3.34 9 -2.68 9 -2 9 C-2.33 7.35 -2.66 5.7 -3 4 C-2.01 4 -1.02 4 0 4 C0 2.68 0 1.36 0 0 Z " fill="#C31B45" transform="translate(147,238)"/>
<path d="M0 0 C2 3 2 3 2 5 C-3.94 5 -9.88 5 -16 5 C-16 4.67 -16 4.34 -16 4 C-11.05 4 -6.1 4 -1 4 C-0.67 2.68 -0.34 1.36 0 0 Z " fill="#F1F6FD" transform="translate(428,219)"/>
<path d="M0 0 C1.65 0 3.3 0 5 0 C5.33 1.32 5.66 2.64 6 4 C3.125 4.125 3.125 4.125 0 4 C-0.66 3.34 -1.32 2.68 -2 2 C-1.34 2 -0.68 2 0 2 C0 1.34 0 0.68 0 0 Z " fill="#D9143C" transform="translate(240,247)"/>
<path d="M0 0 C5.03985731 0.44469329 7.37634988 2.71343362 11 6 C10.67 6.66 10.34 7.32 10 8 C7.96166576 6.7260411 5.96147874 5.38938077 4 4 C4 3.34 4 2.68 4 2 C2.68 1.34 1.36 0.68 0 0 Z " fill="#B5274D" transform="translate(287,217)"/>
<path d="M0 0 C0.556875 0.226875 1.11375 0.45375 1.6875 0.6875 C0.0375 1.0175 -1.6125 1.3475 -3.3125 1.6875 C-3.6425 2.6775 -3.9725 3.6675 -4.3125 4.6875 C-6.875 5.875 -6.875 5.875 -9.3125 6.6875 C-7.70234959 2.442558 -4.80443663 -0.64924819 0 0 Z " fill="#B6234D" transform="translate(276.3125,217.3125)"/>
<path d="M0 0 C2.375 0.3125 2.375 0.3125 5 1 C5.66 1.99 6.32 2.98 7 4 C4.36 4 1.72 4 -1 4 C-0.67 2.68 -0.34 1.36 0 0 Z " fill="#D3124A" transform="translate(216,248)"/>
<path d="M0 0 C0.99 0 1.98 0 3 0 C3 1.32 3 2.64 3 4 C-1.29 4 -5.58 4 -10 4 C-10 3.67 -10 3.34 -10 3 C-6.7 2.67 -3.4 2.34 0 2 C0 1.34 0 0.68 0 0 Z " fill="#970920" transform="translate(87,241)"/>
<path d="M0 0 C-3 2 -3 2 -5.5625 3 C-8.12563162 3.86842753 -8.12563162 3.86842753 -10 6 C-10 4.35 -10 2.7 -10 1 C-6.61981469 -0.04005702 -3.5219721 -0.08004482 0 0 Z " fill="#B72046" transform="translate(172,222)"/>
<path d="M0 0 C1.32 0.33 2.64 0.66 4 1 C4 3 4 3 2.625 4.625 C1 6 1 6 -1 6 C-1.33 5.01 -1.66 4.02 -2 3 C-1.34 2.01 -0.68 1.02 0 0 Z " fill="#DE133A" transform="translate(275,219)"/>
<path d="M0 0 C1.4540625 0.0309375 1.4540625 0.0309375 2.9375 0.0625 C2.6075 1.0525 2.2775 2.0425 1.9375 3.0625 C0.9475 3.3925 -0.0425 3.7225 -1.0625 4.0625 C-2.0525 3.0725 -3.0425 2.0825 -4.0625 1.0625 C-3.0625 0.0625 -3.0625 0.0625 0 0 Z " fill="#DE133B" transform="translate(252.0625,218.9375)"/>
<path d="M0 0 C0.66 0.66 1.32 1.32 2 2 C4.57061311 2.64767793 4.57061311 2.64767793 7 3 C7 3.66 7 4.32 7 5 C4.69 5 2.38 5 0 5 C0 3.35 0 1.7 0 0 Z " fill="#BB1D4A" transform="translate(239,242)"/>
<path d="M0 0 C0.99 0 1.98 0 3 0 C3.33 2.64 3.66 5.28 4 8 C1.10067643 5.60490662 0.49831724 3.68754757 0 0 Z " fill="#BF1C45" transform="translate(153,239)"/>
<path d="" fill="#7F0063" transform="translate(0,0)"/>
<path d="" fill="#000000" transform="translate(0,0)"/>
<path d="" fill="#000000" transform="translate(0,0)"/>
</svg>
